<svg width="64" height="64" viewBox="0 0 64 64" xmlns="http://www.w3.org/2000/svg">
  <defs>
    <linearGradient id="m" x1="0" y1="0" x2="1" y2="1"><stop offset="0%" stop-color="#9be3c0"/><stop offset="100%" stop-color="#5fc99a"/></linearGradient>
    <linearGradient id="t" x1="0" y1="0" x2="0" y2="1"><stop offset="0%" stop-color="#4ab695"/><stop offset="100%" stop-color="#2a8a6a"/></linearGradient>
    <linearGradient id="d" x1="0" y1="0" x2="0" y2="1"><stop offset="0%" stop-color="#2f8c70"/><stop offset="100%" stop-color="#1c5d49"/></linearGradient>
    <linearGradient id="g" x1="0" y1="0" x2="1" y2="1"><stop offset="0%" stop-color="#f0c34d"/><stop offset="100%" stop-color="#c98e1f"/></linearGradient>
  </defs>
  <rect width="64" height="64" rx="14" fill="#0e2b25"/>
  <path d="M22 8 Q29 5 34 9 L31 19 Q24 19 19 14 Q19 10 22 8 Z" fill="url(#t)"/>
  <path d="M36 9 L46 13 Q49 18 45 22 L33 19 Q31 13 36 9 Z" fill="url(#m)"/>
  <path d="M47 24 L54 30 Q55 37 50 41 L42 33 Q42 27 47 24 Z" fill="url(#d)"/>
  <path d="M22 21 L33 21 L40 29 L34 39 L22 36 Q17 28 22 21 Z" fill="url(#m)"/>
  <path d="M11 30 L20 30 L22 42 Q17 47 11 44 Q7 38 11 30 Z" fill="url(#t)"/>
  <path d="M28 42 L42 36 L48 44 Q46 53 38 54 Q30 53 28 42 Z" fill="url(#d)"/>
  <path d="M38 22 L46 23 L45 30 L37 30 Q35 26 38 22 Z" fill="url(#g)"/>
  <g stroke="#0c2820" stroke-width="1.1" fill="none" stroke-linejoin="round">
    <path d="M22 8 Q29 5 34 9 L31 19 Q24 19 19 14 Q19 10 22 8 Z"/>
    <path d="M36 9 L46 13 Q49 18 45 22 L33 19 Q31 13 36 9 Z"/>
    <path d="M47 24 L54 30 Q55 37 50 41 L42 33 Q42 27 47 24 Z"/>
    <path d="M22 21 L33 21 L40 29 L34 39 L22 36 Q17 28 22 21 Z"/>
    <path d="M11 30 L20 30 L22 42 Q17 47 11 44 Q7 38 11 30 Z"/>
    <path d="M28 42 L42 36 L48 44 Q46 53 38 54 Q30 53 28 42 Z"/>
    <path d="M38 22 L46 23 L45 30 L37 30 Q35 26 38 22 Z"/>
  </g>
</svg>
